<svg xmlns="http://www.w3.org/2000/svg" viewBox="0 0 563 595" width="563" height="595">
	<defs>
		<clipPath clipPathUnits="userSpaceOnUse" id="cp1">
			<path d="M0 0L563 0L563 595L0 595Z" />
		</clipPath>
	</defs>
	<style>
		tspan { white-space:pre }
		.shp0 { fill: #ffffff } 
	</style>
	<g id="Page 1" clip-path="url(#cp1)">
		<path id="Path 1" class="shp0" d="M561.39,88.48l-113.9,243.03c10.07,4.66 17.79,13.58 20.88,25.09c4.68,17.45 -2.79,35.07 -18.58,43.84c-3.2,1.78 -3.68,4.68 -3.68,6.25c0,1.57 0.48,4.47 3.68,6.25c15.79,8.78 23.26,26.39 18.58,43.84c-4.67,17.45 -19.87,28.95 -38.01,28.67c-3.65,0.02 -5.52,2.21 -6.31,3.57c-0.79,1.36 -1.82,4.11 0.06,7.25c9.29,15.49 6.95,34.48 -5.82,47.26c-12.77,12.78 -31.77,15.11 -47.26,5.83c-3.14,-1.88 -5.89,-0.84 -7.25,-0.06c-1.36,0.78 -3.63,2.65 -3.57,6.31c0.3,18.06 -11.22,33.34 -28.67,38.01c-17.45,4.67 -35.06,-2.79 -43.84,-18.58c-1.78,-3.2 -4.68,-3.68 -6.25,-3.68c-1.57,0 -4.47,0.48 -6.25,3.68c-7.03,12.65 -19.74,19.96 -33.49,19.96c-3.41,0 -6.88,-0.45 -10.35,-1.38c-17.45,-4.68 -28.97,-19.96 -28.67,-38.02c0.06,-3.66 -2.21,-5.52 -3.57,-6.31c-1.36,-0.78 -4.11,-1.82 -7.25,0.06c-15.49,9.29 -34.49,6.95 -47.26,-5.82c-12.77,-12.78 -15.11,-31.76 -5.82,-47.26c1.88,-3.14 0.84,-5.89 0.06,-7.25c-0.78,-1.36 -2.6,-3.52 -6.31,-3.57c-18.02,0.31 -33.34,-11.22 -38.01,-28.67c-4.68,-17.45 2.79,-35.07 18.58,-43.84c3.2,-1.78 3.68,-4.68 3.68,-6.25c0,-1.57 -0.48,-4.47 -3.68,-6.25c-15.79,-8.77 -23.26,-26.39 -18.58,-43.84c3.09,-11.52 10.8,-20.42 20.88,-25.08l-113.9,-243.04c-3.7,-7.89 -0.3,-17.28 7.59,-20.97l141.47,-66.3c3.79,-1.77 8.13,-1.97 12.06,-0.55c3.93,1.42 7.14,4.35 8.92,8.14l109.29,233.2c0.23,0.02 0.44,0.03 0.63,0.03c0.19,0 0.4,-0.01 0.63,-0.03l109.29,-233.2c1.77,-3.79 4.98,-6.71 8.92,-8.14c3.93,-1.43 8.27,-1.23 12.06,0.55l141.47,66.3c7.89,3.7 11.28,13.09 7.58,20.97zM36.75,89.38l96.45,205.8c0.46,-9.25 4.32,-18.25 11.4,-25.33c12.77,-12.77 31.76,-15.11 47.26,-5.82c3.14,1.88 5.89,0.84 7.25,0.06c1.36,-0.78 3.63,-2.65 3.57,-6.31c-0.3,-18.06 11.22,-33.34 28.67,-38.02c1.27,-0.34 2.55,-0.6 3.82,-0.81l-85.52,-182.49zM430.88,359.47c-14.31,0.19 -27.02,-6.99 -34.15,-19.34c-7.13,-12.35 -7.01,-27.02 0.32,-39.24v0c2.5,-4.16 0.4,-7.25 -1.08,-8.73c-1.47,-1.48 -4.57,-3.58 -8.73,-1.08c-12.23,7.34 -26.9,7.45 -39.25,0.33c-12.34,-7.13 -19.58,-19.9 -19.34,-34.15c0.08,-4.85 -3.29,-6.49 -5.3,-7.02c-2.01,-0.54 -5.74,-0.81 -8.1,3.43c-6.92,12.46 -19.57,19.9 -33.82,19.9c-14.26,0 -26.9,-7.44 -33.82,-19.9c-2.36,-4.24 -6.09,-3.98 -8.1,-3.43c-2.01,0.54 -5.38,2.17 -5.3,7.02c0.24,14.26 -6.99,27.02 -19.34,34.15c-12.35,7.13 -27.02,7.01 -39.25,-0.32c-4.16,-2.5 -7.26,-0.4 -8.73,1.08c-1.48,1.48 -3.58,4.57 -1.08,8.73c7.33,12.23 7.45,26.9 0.33,39.25c-7.13,12.34 -19.95,19.57 -34.15,19.34c-4.88,0 -6.49,3.29 -7.02,5.3c-0.54,2.01 -0.81,5.74 3.43,8.1c12.46,6.92 19.9,19.57 19.9,33.83c0,14.25 -7.44,26.9 -19.9,33.82c-4.24,2.36 -3.98,6.09 -3.43,8.1c0.54,2.01 2.11,5.29 7.02,5.3c14.25,-0.25 27.02,6.99 34.15,19.34c7.13,12.35 7.01,27.02 -0.32,39.25c-2.5,4.16 -0.4,7.25 1.08,8.73c1.48,1.47 4.57,3.58 8.73,1.08c12.23,-7.33 26.89,-7.46 39.24,-0.33c12.35,7.13 19.58,19.89 19.34,34.15c-0.08,4.86 3.29,6.48 5.3,7.02c2.01,0.55 5.74,0.81 8.1,-3.43c6.92,-12.46 19.57,-19.9 33.82,-19.9c14.26,0 26.9,7.44 33.82,19.9c2.36,4.24 6.09,3.98 8.1,3.43c2.01,-0.54 5.38,-2.17 5.3,-7.02c-0.24,-14.26 7,-27.02 19.34,-34.15c12.35,-7.13 27.02,-7.01 39.25,0.33c4.16,2.5 7.25,0.39 8.73,-1.08c1.48,-1.47 3.58,-4.57 1.08,-8.73c-7.33,-12.23 -7.46,-26.9 -0.33,-39.25c7.13,-12.35 19.95,-19.6 34.15,-19.34h0.17c4.72,0 6.32,-3.31 6.85,-5.3c0.54,-2.01 0.81,-5.74 -3.44,-8.1c-12.46,-6.92 -19.9,-19.57 -19.9,-33.82c0,-14.26 7.44,-26.9 19.9,-33.83c4.25,-2.36 3.97,-6.09 3.43,-8.1c-0.54,-2.01 -2.19,-5.27 -7.02,-5.3zM526.14,89.38l-112.91,-52.92l-85.52,182.49c1.27,0.21 2.54,0.47 3.82,0.81c17.45,4.67 28.97,19.95 28.67,38.01c-0.06,3.66 2.21,5.52 3.57,6.31c1.36,0.79 4.12,1.82 7.25,-0.06c15.49,-9.29 34.48,-6.95 47.26,5.83c7.08,7.08 10.94,16.08 11.4,25.33z" />
	</g>
</svg>