<svg xmlns="http://www.w3.org/2000/svg" viewBox="0 0 595 516" width="595" height="516">
	<defs>
		<clipPath clipPathUnits="userSpaceOnUse" id="cp1">
			<path d="M0 0L595 0L595 516L0 516Z" />
		</clipPath>
	</defs>
	<style>
		tspan { white-space:pre }
		.shp0 { fill: #ffffff } 
	</style>
	<g id="Page 1" clip-path="url(#cp1)">
		<path id="Path 1" class="shp0" d="M583.4,190.3l-47.64,47.64l-68.51,68.51l18.72,18.72c16.26,16.26 16.26,42.72 0,58.98c-7.69,7.69 -17.67,11.7 -27.76,12.11c-0.42,10.1 -4.42,20.07 -12.12,27.76c-7.69,7.69 -17.67,11.7 -27.76,12.11c-0.42,10.1 -4.42,20.07 -12.11,27.76c-7.47,7.46 -17.26,11.7 -27.75,12.13c-0.43,10.48 -4.67,20.28 -12.13,27.74c-7.88,7.88 -18.35,12.22 -29.49,12.22c-11.14,0 -21.61,-4.34 -29.49,-12.22l-50.88,-50.88l-21.23,21.23c-7.18,7.18 -16.6,10.76 -26.03,10.76c-9.43,0 -18.85,-3.59 -26.03,-10.76l-6.93,-6.93c-6.08,-6.08 -9.77,-13.91 -10.6,-22.35c-8.44,-0.83 -16.27,-4.52 -22.35,-10.6l-6.93,-6.93c-6.08,-6.08 -9.78,-13.92 -10.6,-22.37c-8.16,-0.81 -16.1,-4.33 -22.35,-10.57l-6.93,-6.93c-6.08,-6.07 -9.77,-13.9 -10.6,-22.35c-8.44,-0.83 -16.27,-4.52 -22.35,-10.6l-6.93,-6.93c-6.95,-6.95 -10.78,-16.2 -10.78,-26.03c0,-9.83 3.83,-19.08 10.78,-26.03l21.23,-21.23l-38.52,-38.52l-35.39,-35.39c-5.28,-5.28 -5.28,-13.83 0,-19.11c5.27,-5.28 13.83,-5.28 19.11,0l35.39,35.39l268.02,268.01c5.73,5.73 15.04,5.72 20.77,0c5.72,-5.73 5.73,-15.04 0,-20.77l-75.75,-75.75c-5.27,-5.28 -5.27,-13.83 0,-19.11c5.27,-5.28 13.83,-5.28 19.11,0l75.75,75.75c2.77,2.77 6.46,4.3 10.38,4.3c3.92,0 7.61,-1.53 10.38,-4.3c5.73,-5.73 5.73,-15.04 0,-20.77l-75.75,-75.75c-5.27,-5.28 -5.27,-13.83 0,-19.11c5.28,-5.28 13.83,-5.28 19.11,0l75.75,75.75c5.72,5.73 15.04,5.73 20.77,0c2.77,-2.77 4.3,-6.46 4.3,-10.38c0,-3.92 -1.53,-7.61 -4.3,-10.38l-75.75,-75.75c-5.28,-5.28 -5.28,-13.83 0,-19.11c5.27,-5.28 13.83,-5.28 19.11,0l75.75,75.75c5.73,5.73 15.04,5.73 20.77,0c5.72,-5.73 5.73,-15.04 0,-20.77l-28.28,-28.28l-156.03,-156.03l-59.75,-5.22l-3.76,18.64c-6.79,33.66 -39.69,55.53 -73.36,48.74c-33.66,-6.79 -55.53,-39.69 -48.74,-73.35l6.15,-30.48c12.08,-59.91 70.57,-98.86 130.48,-86.97c0.01,0 0.02,0 0.03,0l133.24,23.85c1.96,-5.48 5.08,-10.64 9.46,-15.02l28.48,-28.47c7.67,-7.67 17.87,-11.9 28.72,-11.9c10.85,0 21.05,4.22 28.72,11.9l121.17,121.17c15.84,15.84 15.84,41.6 0,57.44zM507.1,228.39l-130.79,-130.79l-16.17,-16.17l-131.29,-23.51c-0.1,-0.02 -0.19,-0.04 -0.29,-0.05c-45.43,-9.17 -89.81,20.35 -98.97,65.76l-6.15,30.48c-1.86,9.23 -0.02,18.64 5.2,26.48c5.21,7.84 13.17,13.19 22.4,15.05c19.07,3.84 37.69,-8.54 41.53,-27.59l6.14,-30.48c1.28,-6.35 6.86,-10.84 13.23,-10.84c0.39,0 0.79,0.02 1.19,0.05l76.68,6.7c3.17,0.27 6.13,1.66 8.38,3.9l149.96,149.95zM236.05,435.12l-20.77,-20.77l-19.91,19.91c-3.82,3.82 -3.82,10.02 0,13.84l6.93,6.93c3.81,3.82 10.03,3.82 13.84,0zM162.42,415.15c3.81,3.81 10.02,3.81 13.84,0l19.91,-19.91l-20.77,-20.77l-19.91,19.91c-1.85,1.85 -2.87,4.31 -2.87,6.92c0,2.61 1.02,5.07 2.87,6.92zM122.55,375.28c3.81,3.82 10.02,3.81 13.84,0l19.91,-19.91l-20.77,-20.77l-19.91,19.91c-3.82,3.81 -3.82,10.02 0,13.84zM82.67,335.4c3.81,3.81 10.03,3.82 13.84,0l19.91,-19.91l-20.77,-20.77l-19.91,19.91c-3.82,3.82 -3.82,10.02 0,13.84zM568.27,161.58c0,-3.63 -1.41,-7.05 -3.98,-9.61l-121.18,-121.17c-2.57,-2.57 -5.98,-3.98 -9.61,-3.98c-3.63,0 -7.04,1.41 -9.61,3.98l-28.48,28.48c-2.57,2.57 -3.98,5.98 -3.98,9.61c0,3.63 1.41,7.05 3.98,9.61l130.79,130.79l38.09,-38.09c2.57,-2.57 3.98,-5.98 3.98,-9.61zM531.59,153.43c7.46,0 13.51,6.05 13.51,13.51c0,7.46 -6.05,13.51 -13.51,13.51c-7.46,0 -13.51,-6.05 -13.51,-13.51c0,-7.46 6.05,-13.51 13.51,-13.51z" />
	</g>
</svg>