<svg xmlns="http://www.w3.org/2000/svg" viewBox="0 0 575 595" width="575" height="595">
	<defs>
		<clipPath clipPathUnits="userSpaceOnUse" id="cp1">
			<path d="M0 0L575 0L575 595L0 595Z" />
		</clipPath>
	</defs>
	<style>
		tspan { white-space:pre }
		.shp0 { fill: #000000 } 
	</style>
	<g id="Page 1" clip-path="url(#cp1)">
		<path id="Path 1" class="shp0" d="M575.37,52.12v396.49c0,9.69 -7.86,17.55 -17.55,17.55h-107.7c-17.26,73.74 -83.51,128.84 -162.43,128.84c-78.92,0 -145.18,-55.1 -162.43,-128.84h-107.7c-9.69,0 -17.55,-7.86 -17.55,-17.55v-396.49c0,-9.69 7.86,-17.55 17.55,-17.55h119.33v-17.31c0,-9.69 7.86,-17.55 17.55,-17.55c9.69,0 17.55,7.86 17.55,17.55v17.31h98.16v-17.31c0,-9.69 7.86,-17.55 17.55,-17.55c9.69,0 17.55,7.86 17.55,17.55v17.31h102.51v-17.31c0,-9.69 7.86,-17.55 17.55,-17.55c9.69,0 17.55,7.86 17.55,17.55v17.31h114.98c9.69,0 17.55,7.86 17.54,17.55zM419.44,428.14c0,-72.65 -59.11,-131.76 -131.76,-131.76c-72.65,0 -131.76,59.11 -131.76,131.76c0,72.65 59.11,131.76 131.76,131.76c72.66,0 131.76,-59.11 131.76,-131.76zM35.09,69.67v71.76h505.18v-71.76h-97.43v15.86c0,9.69 -7.86,17.55 -17.55,17.55c-9.69,0 -17.55,-7.86 -17.55,-17.55v-15.86h-102.51v15.86c0,9.69 -7.86,17.55 -17.55,17.55c-9.69,0 -17.55,-7.86 -17.55,-17.55v-15.86h-98.16v15.86c0,9.69 -7.86,17.55 -17.55,17.55c-9.69,0 -17.55,-7.86 -17.55,-17.55v-15.86zM540.27,431.07v-254.54h-505.18v254.54h85.81c-0.02,-0.98 -0.07,-1.95 -0.07,-2.93c0,-92 74.85,-166.86 166.86,-166.86c92,0 166.86,74.85 166.86,166.86c0,0.98 -0.05,1.95 -0.07,2.93zM340.42,467.77c6.85,6.85 6.85,17.96 0,24.82c-3.43,3.42 -7.92,5.14 -12.41,5.14c-4.49,0 -8.98,-1.71 -12.41,-5.14l-40.33,-40.33c-3.29,-3.29 -5.14,-7.76 -5.14,-12.41v-92.16c0,-9.69 7.86,-17.55 17.55,-17.55c9.69,0 17.55,7.86 17.55,17.55v84.89z" />
	</g>
</svg>