<svg xmlns="http://www.w3.org/2000/svg" viewBox="0 0 593 595" width="593" height="595">
	<defs>
		<clipPath clipPathUnits="userSpaceOnUse" id="cp1">
			<path d="M0 0L593 0L593 595L0 595Z" />
		</clipPath>
	</defs>
	<style>
		tspan { white-space:pre }
		.shp0 { fill: #000000 } 
	</style>
	<g id="Page 1" clip-path="url(#cp1)">
		<path id="Path 1" class="shp0" d="M17.67,224.34c-14.06,-37.87 -19.49,-69.2 -17.15,-98.68c1.97,-23.56 11.47,-43.91 28.25,-60.69l46.13,-46.13c13.2,-12.58 28.25,-19.12 43.91,-19.12c15.79,0 30.71,6.54 43.42,19c8.39,7.77 16.9,16.4 25.04,24.79c4.19,4.32 8.26,8.51 12.58,12.83l36.76,36.76c13.44,13.32 20.48,28.74 20.48,44.4c0,15.67 -7.15,31.08 -20.48,44.41c-3.82,3.82 -7.65,7.65 -11.35,11.47c-10.49,10.73 -21.34,21.71 -32.93,32.19c8.26,19.12 20.11,37.87 37.74,60.19c34.91,42.8 71.42,76.11 111.63,101.64c4.07,2.59 8.64,4.93 13.57,7.4c3.95,1.98 8.14,4.07 12.21,6.41l44.16,-44.16c12.95,-12.95 28.12,-19.86 43.91,-19.86c15.79,0 30.84,6.91 43.42,19.98l74.13,74.13c26.52,26.52 26.52,61.3 0.25,88.69c-5.67,5.92 -11.6,11.72 -17.39,17.27c-8.51,8.26 -16.65,16.04 -23.81,24.67c-0.12,0.25 -0.37,0.49 -0.49,0.62c-20.1,21.83 -44.77,32.44 -75.49,32.44c-2.84,0 -5.55,-0.12 -8.39,-0.25c-45.76,-2.96 -86.84,-20.23 -117.55,-34.79c-80.67,-39.1 -151.35,-94.36 -210.06,-164.55c-48.35,-58.1 -80.92,-112.49 -102.5,-171.08zM46.17,214.22c20.48,55.26 51.44,106.82 97.44,162.2c55.88,66.86 123.23,119.53 199.95,156.65c28.25,13.45 65.87,29.23 106.33,31.82c2.1,0.12 4.32,0.25 6.41,0.25c21.83,0 38.73,-7.15 52.92,-22.45c8.14,-9.74 17.15,-18.38 25.78,-26.77c5.8,-5.55 11.23,-10.86 16.41,-16.41c15.05,-15.66 15.17,-31.7 0.37,-46.5l-74.38,-74.26c-4.81,-5.18 -12.46,-10.98 -21.83,-10.98c-7.65,0 -15.42,3.82 -22.57,10.98l-46.13,46.13c-2.1,2.1 -8.51,8.39 -18.38,8.39c-3.95,0 -7.89,-0.99 -11.96,-3.08c-0.49,-0.25 -0.86,-0.49 -1.36,-0.74c-4.07,-2.59 -8.63,-4.93 -13.57,-7.4c-5.3,-2.71 -10.98,-5.43 -16.28,-8.88c-42.92,-27.26 -81.9,-62.66 -118.91,-108.3c-20.6,-25.9 -33.8,-47.61 -43.29,-70.43c-0.12,-0.37 -0.25,-0.62 -0.37,-0.99c-2.47,-7.4 -4.07,-17.15 6.17,-27.38c0.25,-0.25 0.37,-0.37 0.62,-0.62c11.84,-10.48 22.57,-21.46 34.04,-33.06c3.82,-3.82 7.65,-7.77 11.47,-11.6c7.65,-7.65 11.6,-15.42 11.6,-23.07c0,-7.65 -3.95,-15.42 -11.6,-23.07l-36.76,-36.76c-4.32,-4.44 -8.63,-8.76 -12.83,-13.08c-8.39,-8.51 -16.16,-16.53 -24.42,-24.18c-7.03,-7.15 -14.68,-10.73 -22.2,-10.73c-7.65,0 -15.54,3.58 -22.7,10.49l-45.89,45.89c-11.84,11.84 -18.13,25.53 -19.61,41.94c-1.97,24.79 2.84,52.05 15.54,85.97z" />
	</g>
</svg>