<svg xmlns="http://www.w3.org/2000/svg" viewBox="0 0 101 101" width="101" height="101">
	<defs>
		<clipPath clipPathUnits="userSpaceOnUse" id="cp1">
			<path d="M0 0L101 0L101 101L0 101Z" />
		</clipPath>
	</defs>
	<style>
		tspan { white-space:pre }
		.shp0 { fill: #fa3d1a } 
	</style>
	<g id="Page 1" clip-path="url(#cp1)">
		<path id="Path 1" class="shp0" d="M40.37,53.45h7.96v-53.55h-7.96zM0,53.45h48.33v-7.96h-48.33zM0,41.8v9.72l54.81,-38.38l-4.56,-6.52zM53.61,53.45h46.63v-7.96h-46.63zM45.42,13.14l54.81,38.38v-9.72l-50.25,-35.18zM53.61,53.45h7.96v-14.4h-7.96zM53.61,39.38h14.4v-7.96h-14.4zM100.69,64.65h-30.99v6.74h11.38v29h8.17v-29h11.44zM61.99,99.37c2.52,-1.09 4.63,-2.67 6.33,-4.75l-5.31,-4.9c-2.42,2.83 -5.41,4.24 -8.99,4.24c-2.21,0 -4.19,-0.48 -5.92,-1.45c-1.74,-0.97 -3.09,-2.32 -4.06,-4.06c-0.97,-1.74 -1.46,-3.71 -1.46,-5.92c0,-2.21 0.49,-4.19 1.46,-5.92c0.97,-1.74 2.32,-3.09 4.06,-4.06c1.74,-0.97 3.71,-1.46 5.92,-1.46c3.57,0 6.57,1.4 8.99,4.19l5.31,-4.9c-1.7,-2.04 -3.8,-3.61 -6.3,-4.7c-2.5,-1.09 -5.3,-1.63 -8.4,-1.63c-3.68,0 -6.99,0.79 -9.93,2.37c-2.94,1.58 -5.26,3.78 -6.94,6.59c-1.69,2.81 -2.53,5.98 -2.53,9.52c0,3.54 0.84,6.71 2.53,9.52c1.68,2.81 4,5 6.94,6.59c2.94,1.58 6.24,2.37 9.88,2.37c3.1,0 5.9,-0.55 8.42,-1.63zM23.55,100.39h9.39l-12.05,-18.48l11.69,-17.26h-8.73l-9.39,14.45h-5.92v-14.45h-8.22v35.73h8.22v-14.4h5.72z" />
	</g>
</svg>