<svg xmlns="http://www.w3.org/2000/svg">
    <symbol id="logo" viewBox="0 0 101 101">
        <defs>
            <clipPath clipPathUnits="userSpaceOnUse" id="cp1">
                <path d="M0 0L101 0L101 101L0 101Z" />
            </clipPath>
        </defs>
        <style>
            tspan { white-space:pre }
            .shp0 { fill: #fa3d1a } 
        </style>
        <g id="Page 1" clip-path="url(#cp1)">
            <path id="Path 1" class="shp0" d="M40.37,53.45h7.96v-53.55h-7.96zM0,53.45h48.33v-7.96h-48.33zM0,41.8v9.72l54.81,-38.38l-4.56,-6.52zM53.61,53.45h46.63v-7.96h-46.63zM45.42,13.14l54.81,38.38v-9.72l-50.25,-35.18zM53.61,53.45h7.96v-14.4h-7.96zM53.61,39.38h14.4v-7.96h-14.4zM100.69,64.65h-30.99v6.74h11.38v29h8.17v-29h11.44zM61.99,99.37c2.52,-1.09 4.63,-2.67 6.33,-4.75l-5.31,-4.9c-2.42,2.83 -5.41,4.24 -8.99,4.24c-2.21,0 -4.19,-0.48 -5.92,-1.45c-1.74,-0.97 -3.09,-2.32 -4.06,-4.06c-0.97,-1.74 -1.46,-3.71 -1.46,-5.92c0,-2.21 0.49,-4.19 1.46,-5.92c0.97,-1.74 2.32,-3.09 4.06,-4.06c1.74,-0.97 3.71,-1.46 5.92,-1.46c3.57,0 6.57,1.4 8.99,4.19l5.31,-4.9c-1.7,-2.04 -3.8,-3.61 -6.3,-4.7c-2.5,-1.09 -5.3,-1.63 -8.4,-1.63c-3.68,0 -6.99,0.79 -9.93,2.37c-2.94,1.58 -5.26,3.78 -6.94,6.59c-1.69,2.81 -2.53,5.98 -2.53,9.52c0,3.54 0.84,6.71 2.53,9.52c1.68,2.81 4,5 6.94,6.59c2.94,1.58 6.24,2.37 9.88,2.37c3.1,0 5.9,-0.55 8.42,-1.63zM23.55,100.39h9.39l-12.05,-18.48l11.69,-17.26h-8.73l-9.39,14.45h-5.92v-14.45h-8.22v35.73h8.22v-14.4h5.72z" />
        </g>
    </symbol>
    <symbol id="advantage_3" viewBox="0 0 563 595">
        <defs>
            <clipPath clipPathUnits="userSpaceOnUse" id="cp1">
                <path d="M0 0L563 0L563 595L0 595Z" />
            </clipPath>
        </defs>
        <style>
            tspan { white-space:pre }
            .shp0 { fill: #000000 } 
        </style>
        <g id="Page 1" clip-path="url(#cp1)">
            <path id="Path 1" class="shp0" d="M561.39,88.48l-113.9,243.03c10.07,4.66 17.79,13.58 20.88,25.09c4.68,17.45 -2.79,35.07 -18.58,43.84c-3.2,1.78 -3.68,4.68 -3.68,6.25c0,1.57 0.48,4.47 3.68,6.25c15.79,8.78 23.26,26.39 18.58,43.84c-4.67,17.45 -19.87,28.95 -38.01,28.67c-3.65,0.02 -5.52,2.21 -6.31,3.57c-0.79,1.36 -1.82,4.11 0.06,7.25c9.29,15.49 6.95,34.48 -5.82,47.26c-12.77,12.78 -31.77,15.11 -47.26,5.83c-3.14,-1.88 -5.89,-0.84 -7.25,-0.06c-1.36,0.78 -3.63,2.65 -3.57,6.31c0.3,18.06 -11.22,33.34 -28.67,38.01c-17.45,4.67 -35.06,-2.79 -43.84,-18.58c-1.78,-3.2 -4.68,-3.68 -6.25,-3.68c-1.57,0 -4.47,0.48 -6.25,3.68c-7.03,12.65 -19.74,19.96 -33.49,19.96c-3.41,0 -6.88,-0.45 -10.35,-1.38c-17.45,-4.68 -28.97,-19.96 -28.67,-38.02c0.06,-3.66 -2.21,-5.52 -3.57,-6.31c-1.36,-0.78 -4.11,-1.82 -7.25,0.06c-15.49,9.29 -34.49,6.95 -47.26,-5.82c-12.77,-12.78 -15.11,-31.76 -5.82,-47.26c1.88,-3.14 0.84,-5.89 0.06,-7.25c-0.78,-1.36 -2.6,-3.52 -6.31,-3.57c-18.02,0.31 -33.34,-11.22 -38.01,-28.67c-4.68,-17.45 2.79,-35.07 18.58,-43.84c3.2,-1.78 3.68,-4.68 3.68,-6.25c0,-1.57 -0.48,-4.47 -3.68,-6.25c-15.79,-8.77 -23.26,-26.39 -18.58,-43.84c3.09,-11.52 10.8,-20.42 20.88,-25.08l-113.9,-243.04c-3.7,-7.89 -0.3,-17.28 7.59,-20.97l141.47,-66.3c3.79,-1.77 8.13,-1.97 12.06,-0.55c3.93,1.42 7.14,4.35 8.92,8.14l109.29,233.2c0.23,0.02 0.44,0.03 0.63,0.03c0.19,0 0.4,-0.01 0.63,-0.03l109.29,-233.2c1.77,-3.79 4.98,-6.71 8.92,-8.14c3.93,-1.43 8.27,-1.23 12.06,0.55l141.47,66.3c7.89,3.7 11.28,13.09 7.58,20.97zM36.75,89.38l96.45,205.8c0.46,-9.25 4.32,-18.25 11.4,-25.33c12.77,-12.77 31.76,-15.11 47.26,-5.82c3.14,1.88 5.89,0.84 7.25,0.06c1.36,-0.78 3.63,-2.65 3.57,-6.31c-0.3,-18.06 11.22,-33.34 28.67,-38.02c1.27,-0.34 2.55,-0.6 3.82,-0.81l-85.52,-182.49zM430.88,359.47c-14.31,0.19 -27.02,-6.99 -34.15,-19.34c-7.13,-12.35 -7.01,-27.02 0.32,-39.24v0c2.5,-4.16 0.4,-7.25 -1.08,-8.73c-1.47,-1.48 -4.57,-3.58 -8.73,-1.08c-12.23,7.34 -26.9,7.45 -39.25,0.33c-12.34,-7.13 -19.58,-19.9 -19.34,-34.15c0.08,-4.85 -3.29,-6.49 -5.3,-7.02c-2.01,-0.54 -5.74,-0.81 -8.1,3.43c-6.92,12.46 -19.57,19.9 -33.82,19.9c-14.26,0 -26.9,-7.44 -33.82,-19.9c-2.36,-4.24 -6.09,-3.98 -8.1,-3.43c-2.01,0.54 -5.38,2.17 -5.3,7.02c0.24,14.26 -6.99,27.02 -19.34,34.15c-12.35,7.13 -27.02,7.01 -39.25,-0.32c-4.16,-2.5 -7.26,-0.4 -8.73,1.08c-1.48,1.48 -3.58,4.57 -1.08,8.73c7.33,12.23 7.45,26.9 0.33,39.25c-7.13,12.34 -19.95,19.57 -34.15,19.34c-4.88,0 -6.49,3.29 -7.02,5.3c-0.54,2.01 -0.81,5.74 3.43,8.1c12.46,6.92 19.9,19.57 19.9,33.83c0,14.25 -7.44,26.9 -19.9,33.82c-4.24,2.36 -3.98,6.09 -3.43,8.1c0.54,2.01 2.11,5.29 7.02,5.3c14.25,-0.25 27.02,6.99 34.15,19.34c7.13,12.35 7.01,27.02 -0.32,39.25c-2.5,4.16 -0.4,7.25 1.08,8.73c1.48,1.47 4.57,3.58 8.73,1.08c12.23,-7.33 26.89,-7.46 39.24,-0.33c12.35,7.13 19.58,19.89 19.34,34.15c-0.08,4.86 3.29,6.48 5.3,7.02c2.01,0.55 5.74,0.81 8.1,-3.43c6.92,-12.46 19.57,-19.9 33.82,-19.9c14.26,0 26.9,7.44 33.82,19.9c2.36,4.24 6.09,3.98 8.1,3.43c2.01,-0.54 5.38,-2.17 5.3,-7.02c-0.24,-14.26 7,-27.02 19.34,-34.15c12.35,-7.13 27.02,-7.01 39.25,0.33c4.16,2.5 7.25,0.39 8.73,-1.08c1.48,-1.47 3.58,-4.57 1.08,-8.73c-7.33,-12.23 -7.46,-26.9 -0.33,-39.25c7.13,-12.35 19.95,-19.6 34.15,-19.34h0.17c4.72,0 6.32,-3.31 6.85,-5.3c0.54,-2.01 0.81,-5.74 -3.44,-8.1c-12.46,-6.92 -19.9,-19.57 -19.9,-33.82c0,-14.26 7.44,-26.9 19.9,-33.83c4.25,-2.36 3.97,-6.09 3.43,-8.1c-0.54,-2.01 -2.19,-5.27 -7.02,-5.3zM526.14,89.38l-112.91,-52.92l-85.52,182.49c1.27,0.21 2.54,0.47 3.82,0.81c17.45,4.67 28.97,19.95 28.67,38.01c-0.06,3.66 2.21,5.52 3.57,6.31c1.36,0.79 4.12,1.82 7.25,-0.06c15.49,-9.29 34.48,-6.95 47.26,5.83c7.08,7.08 10.94,16.08 11.4,25.33z" />
        </g>
    </symbol>
    <symbol id="advantage_2" viewBox="0 0 595 516">
        <defs>
            <clipPath clipPathUnits="userSpaceOnUse" id="cp1">
                <path d="M0 0L595 0L595 516L0 516Z" />
            </clipPath>
        </defs>
        <style>
            tspan { white-space:pre }
            .shp0 { fill: #000000 } 
        </style>
        <g id="Page 1" clip-path="url(#cp1)">
            <path id="Path 1" class="shp0" d="M583.4,190.3l-47.64,47.64l-68.51,68.51l18.72,18.72c16.26,16.26 16.26,42.72 0,58.98c-7.69,7.69 -17.67,11.7 -27.76,12.11c-0.42,10.1 -4.42,20.07 -12.12,27.76c-7.69,7.69 -17.67,11.7 -27.76,12.11c-0.42,10.1 -4.42,20.07 -12.11,27.76c-7.47,7.46 -17.26,11.7 -27.75,12.13c-0.43,10.48 -4.67,20.28 -12.13,27.74c-7.88,7.88 -18.35,12.22 -29.49,12.22c-11.14,0 -21.61,-4.34 -29.49,-12.22l-50.88,-50.88l-21.23,21.23c-7.18,7.18 -16.6,10.76 -26.03,10.76c-9.43,0 -18.85,-3.59 -26.03,-10.76l-6.93,-6.93c-6.08,-6.08 -9.77,-13.91 -10.6,-22.35c-8.44,-0.83 -16.27,-4.52 -22.35,-10.6l-6.93,-6.93c-6.08,-6.08 -9.78,-13.92 -10.6,-22.37c-8.16,-0.81 -16.1,-4.33 -22.35,-10.57l-6.93,-6.93c-6.08,-6.07 -9.77,-13.9 -10.6,-22.35c-8.44,-0.83 -16.27,-4.52 -22.35,-10.6l-6.93,-6.93c-6.95,-6.95 -10.78,-16.2 -10.78,-26.03c0,-9.83 3.83,-19.08 10.78,-26.03l21.23,-21.23l-38.52,-38.52l-35.39,-35.39c-5.28,-5.28 -5.28,-13.83 0,-19.11c5.27,-5.28 13.83,-5.28 19.11,0l35.39,35.39l268.02,268.01c5.73,5.73 15.04,5.72 20.77,0c5.72,-5.73 5.73,-15.04 0,-20.77l-75.75,-75.75c-5.27,-5.28 -5.27,-13.83 0,-19.11c5.27,-5.28 13.83,-5.28 19.11,0l75.75,75.75c2.77,2.77 6.46,4.3 10.38,4.3c3.92,0 7.61,-1.53 10.38,-4.3c5.73,-5.73 5.73,-15.04 0,-20.77l-75.75,-75.75c-5.27,-5.28 -5.27,-13.83 0,-19.11c5.28,-5.28 13.83,-5.28 19.11,0l75.75,75.75c5.72,5.73 15.04,5.73 20.77,0c2.77,-2.77 4.3,-6.46 4.3,-10.38c0,-3.92 -1.53,-7.61 -4.3,-10.38l-75.75,-75.75c-5.28,-5.28 -5.28,-13.83 0,-19.11c5.27,-5.28 13.83,-5.28 19.11,0l75.75,75.75c5.73,5.73 15.04,5.73 20.77,0c5.72,-5.73 5.73,-15.04 0,-20.77l-28.28,-28.28l-156.03,-156.03l-59.75,-5.22l-3.76,18.64c-6.79,33.66 -39.69,55.53 -73.36,48.74c-33.66,-6.79 -55.53,-39.69 -48.74,-73.35l6.15,-30.48c12.08,-59.91 70.57,-98.86 130.48,-86.97c0.01,0 0.02,0 0.03,0l133.24,23.85c1.96,-5.48 5.08,-10.64 9.46,-15.02l28.48,-28.47c7.67,-7.67 17.87,-11.9 28.72,-11.9c10.85,0 21.05,4.22 28.72,11.9l121.17,121.17c15.84,15.84 15.84,41.6 0,57.44zM507.1,228.39l-130.79,-130.79l-16.17,-16.17l-131.29,-23.51c-0.1,-0.02 -0.19,-0.04 -0.29,-0.05c-45.43,-9.17 -89.81,20.35 -98.97,65.76l-6.15,30.48c-1.86,9.23 -0.02,18.64 5.2,26.48c5.21,7.84 13.17,13.19 22.4,15.05c19.07,3.84 37.69,-8.54 41.53,-27.59l6.14,-30.48c1.28,-6.35 6.86,-10.84 13.23,-10.84c0.39,0 0.79,0.02 1.19,0.05l76.68,6.7c3.17,0.27 6.13,1.66 8.38,3.9l149.96,149.95zM236.05,435.12l-20.77,-20.77l-19.91,19.91c-3.82,3.82 -3.82,10.02 0,13.84l6.93,6.93c3.81,3.82 10.03,3.82 13.84,0zM162.42,415.15c3.81,3.81 10.02,3.81 13.84,0l19.91,-19.91l-20.77,-20.77l-19.91,19.91c-1.85,1.85 -2.87,4.31 -2.87,6.92c0,2.61 1.02,5.07 2.87,6.92zM122.55,375.28c3.81,3.82 10.02,3.81 13.84,0l19.91,-19.91l-20.77,-20.77l-19.91,19.91c-3.82,3.81 -3.82,10.02 0,13.84zM82.67,335.4c3.81,3.81 10.03,3.82 13.84,0l19.91,-19.91l-20.77,-20.77l-19.91,19.91c-3.82,3.82 -3.82,10.02 0,13.84zM568.27,161.58c0,-3.63 -1.41,-7.05 -3.98,-9.61l-121.18,-121.17c-2.57,-2.57 -5.98,-3.98 -9.61,-3.98c-3.63,0 -7.04,1.41 -9.61,3.98l-28.48,28.48c-2.57,2.57 -3.98,5.98 -3.98,9.61c0,3.63 1.41,7.05 3.98,9.61l130.79,130.79l38.09,-38.09c2.57,-2.57 3.98,-5.98 3.98,-9.61zM531.59,153.43c7.46,0 13.51,6.05 13.51,13.51c0,7.46 -6.05,13.51 -13.51,13.51c-7.46,0 -13.51,-6.05 -13.51,-13.51c0,-7.46 6.05,-13.51 13.51,-13.51z" />
        </g>
    </symbol>
    <symbol id="advantage_1" viewBox="0 0 575 595">
       <defs>
            <clipPath clipPathUnits="userSpaceOnUse" id="cp1">
                <path d="M0 0L575 0L575 595L0 595Z" />
            </clipPath>
        </defs>
        <style>
            tspan { white-space:pre }
            .shp0 { fill: #000000 } 
        </style>
        <g id="Page 1" clip-path="url(#cp1)">
            <path id="Path 1" class="shp0" d="M575.37,52.12v396.49c0,9.69 -7.86,17.55 -17.55,17.55h-107.7c-17.26,73.74 -83.51,128.84 -162.43,128.84c-78.92,0 -145.18,-55.1 -162.43,-128.84h-107.7c-9.69,0 -17.55,-7.86 -17.55,-17.55v-396.49c0,-9.69 7.86,-17.55 17.55,-17.55h119.33v-17.31c0,-9.69 7.86,-17.55 17.55,-17.55c9.69,0 17.55,7.86 17.55,17.55v17.31h98.16v-17.31c0,-9.69 7.86,-17.55 17.55,-17.55c9.69,0 17.55,7.86 17.55,17.55v17.31h102.51v-17.31c0,-9.69 7.86,-17.55 17.55,-17.55c9.69,0 17.55,7.86 17.55,17.55v17.31h114.98c9.69,0 17.55,7.86 17.54,17.55zM419.44,428.14c0,-72.65 -59.11,-131.76 -131.76,-131.76c-72.65,0 -131.76,59.11 -131.76,131.76c0,72.65 59.11,131.76 131.76,131.76c72.66,0 131.76,-59.11 131.76,-131.76zM35.09,69.67v71.76h505.18v-71.76h-97.43v15.86c0,9.69 -7.86,17.55 -17.55,17.55c-9.69,0 -17.55,-7.86 -17.55,-17.55v-15.86h-102.51v15.86c0,9.69 -7.86,17.55 -17.55,17.55c-9.69,0 -17.55,-7.86 -17.55,-17.55v-15.86h-98.16v15.86c0,9.69 -7.86,17.55 -17.55,17.55c-9.69,0 -17.55,-7.86 -17.55,-17.55v-15.86zM540.27,431.07v-254.54h-505.18v254.54h85.81c-0.02,-0.98 -0.07,-1.95 -0.07,-2.93c0,-92 74.85,-166.86 166.86,-166.86c92,0 166.86,74.85 166.86,166.86c0,0.98 -0.05,1.95 -0.07,2.93zM340.42,467.77c6.85,6.85 6.85,17.96 0,24.82c-3.43,3.42 -7.92,5.14 -12.41,5.14c-4.49,0 -8.98,-1.71 -12.41,-5.14l-40.33,-40.33c-3.29,-3.29 -5.14,-7.76 -5.14,-12.41v-92.16c0,-9.69 7.86,-17.55 17.55,-17.55c9.69,0 17.55,7.86 17.55,17.55v84.89z" />
        </g>
    </symbol>
    <symbol id="phone" viewBox="0 0 593 595">
       <defs>
            <clipPath clipPathUnits="userSpaceOnUse" id="cp1">
                <path d="M0 0L593 0L593 595L0 595Z" />
            </clipPath>
        </defs>
        <style>
            tspan { white-space:pre }
            .shp0 { fill: #000000 } 
        </style>
        <g id="Page 1" clip-path="url(#cp1)">
            <path id="Path 1" class="shp0" d="M17.67,224.34c-14.06,-37.87 -19.49,-69.2 -17.15,-98.68c1.97,-23.56 11.47,-43.91 28.25,-60.69l46.13,-46.13c13.2,-12.58 28.25,-19.12 43.91,-19.12c15.79,0 30.71,6.54 43.42,19c8.39,7.77 16.9,16.4 25.04,24.79c4.19,4.32 8.26,8.51 12.58,12.83l36.76,36.76c13.44,13.32 20.48,28.74 20.48,44.4c0,15.67 -7.15,31.08 -20.48,44.41c-3.82,3.82 -7.65,7.65 -11.35,11.47c-10.49,10.73 -21.34,21.71 -32.93,32.19c8.26,19.12 20.11,37.87 37.74,60.19c34.91,42.8 71.42,76.11 111.63,101.64c4.07,2.59 8.64,4.93 13.57,7.4c3.95,1.98 8.14,4.07 12.21,6.41l44.16,-44.16c12.95,-12.95 28.12,-19.86 43.91,-19.86c15.79,0 30.84,6.91 43.42,19.98l74.13,74.13c26.52,26.52 26.52,61.3 0.25,88.69c-5.67,5.92 -11.6,11.72 -17.39,17.27c-8.51,8.26 -16.65,16.04 -23.81,24.67c-0.12,0.25 -0.37,0.49 -0.49,0.62c-20.1,21.83 -44.77,32.44 -75.49,32.44c-2.84,0 -5.55,-0.12 -8.39,-0.25c-45.76,-2.96 -86.84,-20.23 -117.55,-34.79c-80.67,-39.1 -151.35,-94.36 -210.06,-164.55c-48.35,-58.1 -80.92,-112.49 -102.5,-171.08zM46.17,214.22c20.48,55.26 51.44,106.82 97.44,162.2c55.88,66.86 123.23,119.53 199.95,156.65c28.25,13.45 65.87,29.23 106.33,31.82c2.1,0.12 4.32,0.25 6.41,0.25c21.83,0 38.73,-7.15 52.92,-22.45c8.14,-9.74 17.15,-18.38 25.78,-26.77c5.8,-5.55 11.23,-10.86 16.41,-16.41c15.05,-15.66 15.17,-31.7 0.37,-46.5l-74.38,-74.26c-4.81,-5.18 -12.46,-10.98 -21.83,-10.98c-7.65,0 -15.42,3.82 -22.57,10.98l-46.13,46.13c-2.1,2.1 -8.51,8.39 -18.38,8.39c-3.95,0 -7.89,-0.99 -11.96,-3.08c-0.49,-0.25 -0.86,-0.49 -1.36,-0.74c-4.07,-2.59 -8.63,-4.93 -13.57,-7.4c-5.3,-2.71 -10.98,-5.43 -16.28,-8.88c-42.92,-27.26 -81.9,-62.66 -118.91,-108.3c-20.6,-25.9 -33.8,-47.61 -43.29,-70.43c-0.12,-0.37 -0.25,-0.62 -0.37,-0.99c-2.47,-7.4 -4.07,-17.15 6.17,-27.38c0.25,-0.25 0.37,-0.37 0.62,-0.62c11.84,-10.48 22.57,-21.46 34.04,-33.06c3.82,-3.82 7.65,-7.77 11.47,-11.6c7.65,-7.65 11.6,-15.42 11.6,-23.07c0,-7.65 -3.95,-15.42 -11.6,-23.07l-36.76,-36.76c-4.32,-4.44 -8.63,-8.76 -12.83,-13.08c-8.39,-8.51 -16.16,-16.53 -24.42,-24.18c-7.03,-7.15 -14.68,-10.73 -22.2,-10.73c-7.65,0 -15.54,3.58 -22.7,10.49l-45.89,45.89c-11.84,11.84 -18.13,25.53 -19.61,41.94c-1.97,24.79 2.84,52.05 15.54,85.97z" />
        </g>
    </symbol>
    <symbol id="person" viewBox="0 0 595 567">
       <defs>
            <clipPath clipPathUnits="userSpaceOnUse" id="cp1">
                <path d="M0 0L595 0L595 567L0 567Z" />
            </clipPath>
        </defs>
        <style>
            tspan { white-space:pre }
            .shp0 { fill: #000000 } 
        </style>
        <g id="Page 1" clip-path="url(#cp1)">
            <path id="Path 1" class="shp0" d="M137.34,158.91c0,-87.48 71.36,-158.84 159.33,-158.84c87.97,0 159.33,70.87 159.33,158.84c0,87.97 -71.35,159.33 -159.33,159.33c-87.97,0 -159.33,-71.84 -159.33,-159.33zM179.37,158.91c0,64.51 52.78,117.3 117.3,117.3c64.51,0 117.3,-52.78 117.3,-117.3c0,-64.51 -52.78,-117.3 -117.3,-117.3c-64.51,0 -117.3,52.78 -117.3,117.3zM0,545.98c0,-110.45 89.93,-199.89 199.89,-199.89h195.49c110.46,0 199.89,89.93 199.89,199.89c0,11.73 -9.29,21.02 -21.01,21.02h-553.25c-11.73,0 -21.02,-9.29 -21.02,-21.02zM43.5,524.97h508.29c-10.26,-77.22 -76.24,-136.85 -156.4,-136.85h-195.49c-80.15,0 -146.13,60.12 -156.4,136.85z" />
        </g>
    </symbol>
</svg>